<svg id="Layer_1" data-name="Layer 1" xmlns="http://www.w3.org/2000/svg" viewBox="0 0 8278.14 8305.45"><defs><style>.cls-1{fill:#040403;}.cls-2{fill:#fbcb55;}.cls-3{fill:#fe00fe;}.cls-4{fill:#fefefe;}.cls-5{fill:#bfbfbf;}.cls-6{fill:gray;}.cls-7{fill:#fe0000;}</style></defs><title>blesk</title><path class="cls-1" d="M299.08,373.08h75.09c1.25,0,2.5.05,3.75,0,2.53-.13,4.75.4,6.07,2.8,1.44,2.63.24,4.76-1.32,6.87-4.39,5.91-8.72,11.87-13.09,17.8Q321.42,466,273.23,531.42c-.52.71-1,1.43-1.58,2.09-1.8,2.13-3.95,3.06-6.62,1.69s-3.37-3.53-2.65-6.28q3.22-12.3,6.49-24.57C274.54,483,280.13,461.7,286,440.43c.89-3.23-.06-3.41-2.78-3.4-21,.09-42,.06-63,.05-7.24,0-9-2.48-6.76-9.22l40.11-118.15c1.66-4.89,2.65-5.6,7.87-5.6h53.24c6.76,0,8.72,2.85,6.37,9.26q-10.23,27.88-20.49,55.75C300.11,370.27,299.69,371.42,299.08,373.08ZM225,426.57H290.9c7.15,0,8.9,2.34,7.05,9.32q-8.88,33.45-17.77,66.88l.73.46L369,383.59H294.41c-7.62,0-9.45-2.64-6.82-9.77q10.21-27.7,20.4-55.42c.41-1.12,1.25-2.21.77-3.78-14.05,0-28.15.07-42.25-.07-2.66,0-3.86.72-4.73,3.33-7.86,23.52-15.89,47-23.85,70.46C233.65,401,229.4,413.56,225,426.57Z" transform="translate(7893.5 7769.6)"/><path class="cls-2" d="M225,426.57c4.39-13,8.64-25.62,12.92-38.23,8-23.48,16-46.94,23.85-70.46.87-2.61,2.07-3.35,4.73-3.33,14.1.14,28.2.07,42.25.07.48,1.57-.36,2.66-.77,3.78q-10.15,27.72-20.4,55.42c-2.63,7.13-.8,9.77,6.82,9.77H369L280.91,503.23l-.73-.46q8.88-33.43,17.77-66.88c1.85-7,.1-9.32-7.05-9.32H225Z" transform="translate(7893.5 7769.6)"/><path class="cls-3" d="M-7839-7754.11c-17,0-33.91,0-50.87,0-2.2,0-3.44-.08-3.2-2.92.32-4-1.45-9.34.53-11.55,1.78-2,7.43-.56,11.36-.56,26.94,0,53.87,0,80.81-.07,2.5,0,3.75.1,3.45,3.18-.38,3.93,1.29,9-.64,11.51-1.43,1.85-7.18.37-11,.37H-7835l.06-1.46,0-1.62-.11.13c1.61-.92,1.92-1.88.07-2.88l-1.16-1.17c.19-.71-.28-1-.82-1.16l.82-1.85c.05-.95,2.51-1.75.16-2.82-1.82-.06-3.65-.18-5.48-.16-3.21.05-6.8-.94-8.68,3-1.34,0-2.67.11-1.83,2.08l.08-.08c-1.17-1.22-2.28.4-3.52.08-.93-.24-2.78-.49-2.45,1.31.29,1.55-1.85,4.25,1.72,4.61,4.55,1.94,8.78,1.73,12.51-1.85,1.17-1.12,2.13-2.62,4.12-2.21a3.93,3.93,0,0,0-.3,3.06c0,.62-.35,1.55.92,1l-.09-.1c-.68.55-.69,1.1,0,1.65Zm30.17-12c-.2-.54-.45-1-1.16-.84-5.95.23-12-1.29-17.84.84v3c5.78,2.25,11.79.4,17.67,1,1.2,4.86-2.2,3.63-4.7,3.5-.36,0,0-1.63-.91-.87-3.12,2.67-6.94-.82-10.06,1.31-1.15.79-1.23-2.45-2-.81-.88,1.91,1,1.86,2.37,1.86,3.83,0,7.71-.41,11.47.1,4.42.61,5.49-1.33,5.15-5.1,2.2-.81,6.39,1.9,6.5-1.76C-7802.2-7768.21-7806.62-7765.23-7808.84-7766.11Zm-74.16-.84a20.22,20.22,0,0,1-3.7.8c-1.61.06-2.37.56-2.29,2.28.09,2.06,1.55,1.81,2.77,1.71a18.45,18.45,0,0,0,3.22-.79c2.23,1.36-.64,5.39,2.34,5.67,5.45.51,11,.16,16.47.14,1.17,0,1.17-.92,1.14-1.75,0-.23-.23-.46-.35-.69-1.85,3-4.47.23-6.76.83a29.3,29.3,0,0,1-9.36.54c-2.71-.18-1.11-2.49-1.32-3.89,5.87-.61,11.89,1.24,17.67-1v-3c-5.86-2.13-11.89-.61-17.84-.84Z" transform="translate(7893.5 7769.6)"/><path class="cls-3" d="M-7834.95-7755.57l-.06,1.46h-4v-.42c.5-1.13,2.5.21,2.59-1.58l-.14,0A1,1,0,0,0-7834.95-7755.57Z" transform="translate(7893.5 7769.6)"/><path class="cls-4" d="M-7839.54-7760.17c-2-.41-2.95,1.09-4.12,2.21-3.73,3.58-8,3.79-12.51,1.85-3.4-5.41,2.14-4.49,4.25-6l-.08.08c.93-.42,1.8-.88,1.83-2.08,1.88-3.93,5.47-2.94,8.68-3,1.83,0,3.66.1,5.48.16-1,1.65-2.71.87-4,.75a6.35,6.35,0,0,0-6.25,2.84c-.63.89-2.73,1.56-1.21,3,1.12,1,2.43,0,3.3-1.07,1.15-1.42,2.32-2.32,3.83-.45a.11.11,0,0,0,0,.11,1.17,1.17,0,0,0,1.27,1.25Z" transform="translate(7893.5 7769.6)"/><path class="cls-5" d="M-7863.17-7766.11v3l-17.68-.07V-7766Z" transform="translate(7893.5 7769.6)"/><path class="cls-5" d="M-7827.84-7763.11v-3l17.68.07v2.86Z" transform="translate(7893.5 7769.6)"/><path d="M-7880.85-7766v3.94c.21,1.4-1.39,3.71,1.32,3.89a29.3,29.3,0,0,0,9.36-.54c2.29-.6,4.91,2.19,6.76-.83.12.23.34.46.35.69,0,.83,0,1.75-1.14,1.75-5.5,0-11,.37-16.47-.14-3-.28-.11-4.31-2.34-5.67,2.07-1.33.69-2.66,0-4h2A1.68,1.68,0,0,0-7880.85-7766Z" transform="translate(7893.5 7769.6)"/><path d="M-7810.16-7763.18V-7766a1.68,1.68,0,0,0,.16-.91c.71-.17,1,.3,1.16.84v4c.34,3.77-.73,5.71-5.15,5.1-3.76-.51-7.64-.1-11.47-.1-1.33,0-3.25,0-2.37-1.86.76-1.64.84,1.6,2,.81,3.12-2.13,6.94,1.36,10.06-1.31.89-.76.55.85.91.87,2.5.13,5.9,1.36,4.7-3.5C-7810.17-7762.46-7810.16-7762.82-7810.16-7763.18Z" transform="translate(7893.5 7769.6)"/><path d="M-7840.32-7761.91c-1.51-1.87-2.68-1-3.83.45-.87,1.07-2.18,2.1-3.3,1.07-1.52-1.4.58-2.07,1.21-3a6.35,6.35,0,0,1,6.25-2.84c1.27.12,2.94.9,4-.75,2.35,1.07-.11,1.87-.16,2.81l-2.84.19C-7841.37-7764.51-7840.13-7762.75-7840.32-7761.91Z" transform="translate(7893.5 7769.6)"/><path class="cls-5" d="M-7808.84-7762.11v-4c2.22.88,6.64-2.1,6.5,2.24C-7802.45-7760.21-7806.64-7762.92-7808.84-7762.11Z" transform="translate(7893.5 7769.6)"/><path class="cls-5" d="M-7883-7766.95c.69,1.34,2.07,2.67,0,4a18.45,18.45,0,0,1-3.22.79c-1.22.1-2.68.35-2.77-1.71-.08-1.72.68-2.22,2.29-2.28A20.22,20.22,0,0,0-7883-7766.95Z" transform="translate(7893.5 7769.6)"/><path class="cls-6" d="M-7880.85-7766a1.68,1.68,0,0,1-.16-.91c5.95.23,12-1.29,17.84.84Z" transform="translate(7893.5 7769.6)"/><path class="cls-6" d="M-7810-7766.95a1.68,1.68,0,0,1-.16.91l-17.68-.07C-7822-7768.24-7815.95-7766.72-7810-7766.95Z" transform="translate(7893.5 7769.6)"/><path class="cls-6" d="M-7880.84-7762.1v-1.08l17.68.07C-7868.95-7760.86-7875-7762.71-7880.84-7762.1Z" transform="translate(7893.5 7769.6)"/><path class="cls-6" d="M-7810.16-7763.18c0,.36,0,.72,0,1.08-5.88-.61-11.89,1.24-17.67-1Z" transform="translate(7893.5 7769.6)"/><path class="cls-4" d="M-7839.54-7760.17l.54-.38,3.92,3.49.11-.13-1.6,1.13.14,0-2.58-.08.09.1-.92-1A3.93,3.93,0,0,1-7839.54-7760.17Z" transform="translate(7893.5 7769.6)"/><path d="M-7851.92-7762.11c-2.11,1.51-7.65.59-4.25,6-3.57-.36-1.43-3.06-1.72-4.61-.33-1.8,1.52-1.55,2.45-1.31C-7854.2-7761.71-7853.09-7763.33-7851.92-7762.11Z" transform="translate(7893.5 7769.6)"/><path d="M-7835.08-7757.06l-3.92-3.49a1.16,1.16,0,0,1-1.26-1.26c1,1.16,1.47-.44,2.25-.47h1c.54.2,1,.45.82,1.16-.89.35-1.17,1.06-.53,1.69s1.34.36,1.69-.52C-7833.16-7758.94-7833.47-7758-7835.08-7757.06Z" transform="translate(7893.5 7769.6)"/><path class="cls-7" d="M-7837-7762.27h-1c-.33-.55-.66-1.11-1-1.66l2.84-.19Z" transform="translate(7893.5 7769.6)"/><path d="M-7850.17-7764.11c0,1.2-.9,1.66-1.83,2.08C-7852.84-7764-7851.51-7764.06-7850.17-7764.11Z" transform="translate(7893.5 7769.6)"/><path class="cls-4" d="M-7835-7759.94c-.35.88-1.06,1.16-1.69.52s-.36-1.34.53-1.69Z" transform="translate(7893.5 7769.6)"/><path d="M-7839-7756.19l2.58.08c-.09,1.79-2.09.45-2.59,1.58C-7839.7-7755.09-7839.69-7755.64-7839-7756.19Z" transform="translate(7893.5 7769.6)"/><path d="M-7839.84-7757.11l.92,1C-7840.19-7755.56-7839.85-7756.49-7839.84-7757.11Z" transform="translate(7893.5 7769.6)"/><path d="M-7836.57-7756.06l1.6-1.13,0,1.62A1,1,0,0,1-7836.57-7756.06Z" transform="translate(7893.5 7769.6)"/><path class="cls-3" d="M-7839-7763.94c.34.55.67,1.11,1,1.66-.78,0-1.23,1.63-2.25.47a.08.08,0,0,1-.06-.1C-7840.13-7762.75-7841.37-7764.51-7839-7763.94Z" transform="translate(7893.5 7769.6)"/></svg>